:FULLY-SPECIFIED
:FORCE-ALL-JOINTS-BE-3DOF
:DEGREES
1325
root -1.75275 14.4502 8.17207 351.846 32.1601 363.259
lfemur 4.21831 -3.24166 -15.5932
ltibia 57.2576 0 0
lfoot -30.3466 28.5209 0
ltoes -18.53 0 0
rfemur -44.0107 -4.77777 0.0937571
rtibia 48.623 0 0
rfoot 12.8323 5.70273 0
rtoes -4.81377 0 0
lowerback 13.8418 0.429093 -13.0701
upperback -1.31861 -1.66045 -0.28836
thorax -8.94001 -0.155813 7.43607
lowerneck -0.617984 -10.9913 -11.693
upperneck 9.82999 -15.4783 10.8273
head 4.80148 -7.64342 4.31606
lclavicle -2.39259e-17 2.0173e-15 0
lhumerus -70.0183 -13.5843 98.4991
lradius 96.6439 0 0
lwrist 45.7271 0 0
lhand -18.5205 44.4716 0
lfingers 7.12502 0 0
lthumb 12.5785 -301.139 0
rclavicle 5.74985e-14 3.89618e-14 0
rhumerus 44.1572 2.13816 -46.6818
rradius 84.8494 0 0
rwrist 31.1466 0 0
rhand -22.942 -27.9591 0
rfingers 7.12502 0 0
rthumb -11.6864 -70.4291 0
1326
root -1.85616 14.3247 8.39616 350.693 34.1457 363.342
lfemur 4.59106 -3.38495 -15.4577
ltibia 56.8368 0 0
lfoot -30.1982 28.8666 0
ltoes -18.4775 0 0
rfemur -44.5458 -5.5424 0.511662
rtibia 47.6306 0 0
rfoot 13.1934 5.97193 0
rtoes -5.10809 0 0
lowerback 16.8339 0.55452 -13.755
upperback -1.13284 -2.09608 -0.45524
thorax -10.346 -0.231402 7.83259
lowerneck -0.127438 -11.3868 -11.8384
upperneck 8.79124 -16.0436 11.4347
head 4.53092 -7.9304 4.51727
lclavicle -8.04211e-16 1.73898e-15 0
lhumerus -73.2617 -12.7411 98.9867
lradius 96.7475 0 0
lwrist 47.3432 0 0
lhand -18.233 44.1542 0
lfingers 7.12502 0 0
lthumb 12.5617 -300.788 0
rclavicle 5.67604e-14 3.87025e-14 0
rhumerus 47.164 -0.111605 -44.1121
rradius 84.3131 0 0
rwrist 31.7255 0 0
rhand -24.3572 -28.2804 0
rfingers 7.12502 0 0
rthumb -11.7047 -70.3957 0
1327
root -1.87376 14.243 8.65248 351.936 33.8852 364.042
lfemur 4.71919 -3.43421 -15.4111
ltibia 56.4399 0 0
lfoot -30.0182 29.2858 0
ltoes -18.3268 0 0
rfemur -45.1116 -6.35083 0.953498
rtibia 46.7827 0 0
rfoot 13.4198 6.14081 0
rtoes -5.37057 0 0
lowerback 16.062 0.828815 -14.3709
upperback -1.32181 -1.77164 -0.752711
thorax -10.1964 -0.0560566 7.74248
lowerneck 0.344053 -11.6521 -11.9069
upperneck 7.92886 -16.4117 11.7802
head 4.27042 -8.12855 4.64439
lclavicle -1.62005e-15 1.44798e-15 0
lhumerus -75.8828 -12.0598 99.3807
lradius 96.8865 0 0
lwrist 48.967 0 0
lhand -17.9454 43.8368 0
lfingers 7.12502 0 0
lthumb 12.5396 -300.324 0
rclavicle 5.46427e-14 3.79588e-14 0
rhumerus 50.0278 -2.25436 -41.6647
rradius 83.8334 0 0
rwrist 31.7186 0 0
rhand -25.8124 -28.6107 0
rfingers 7.12502 0 0
rthumb -11.7578 -70.2989 0
1328
root -1.87162 14.1918 8.90018 353.308 33.0778 364.356
lfemur 4.76883 -3.42526 -15.3928
ltibia 56.0717 0 0
lfoot -29.8116 29.7671 0
ltoes -18.0884 0 0
rfemur -45.7012 -7.19331 1.41395
rtibia 46.0953 0 0
rfoot 13.4983 6.19933 0
rtoes -5.59631 0 0
lowerback 14.5887 1.10008 -14.4824
upperback -1.59671 -1.22435 -0.987983
thorax -9.79573 0.18356 7.37849
lowerneck 0.782239 -11.8109 -11.8269
upperneck 7.47864 -16.6357 11.8229
head 4.08644 -8.2567 4.66403
lclavicle -2.4596e-15 1.14852e-15 0
lhumerus -77.8251 -11.5549 99.6727
lradius 97.0572 0 0
lwrist 50.5831 0 0
lhand -17.6604 43.5223 0
lfingers 7.12502 0 0
lthumb 12.5127 -299.762 0
rclavicle 5.12908e-14 3.67815e-14 0
rhumerus 52.7078 -4.25953 -39.3744
rradius 83.4197 0 0
rwrist 31.6984 0 0
rhand -27.2943 -28.9471 0
rfingers 7.12502 0 0
rthumb -11.843 -70.1435 0
1329
root -1.86577 14.2029 9.11508 354.519 31.8263 364.2
lfemur 4.91254 -3.39934 -15.3397
ltibia 55.7371 0 0
lfoot -29.5831 30.2994 0
ltoes -17.7725 0 0
rfemur -46.3078 -8.06011 1.88769
rtibia 45.5844 0 0
rfoot 13.4359 6.20407 0
rtoes -5.78042 0 0
lowerback 13.2781 1.43225 -14.0079
upperback -1.9627 -0.520957 -1.1195
thorax -9.61503 0.491432 6.79182
lowerneck 0.982217 -11.9951 -11.4784
upperneck 7.35023 -16.8509 11.3445
head 3.97017 -8.37639 4.47014
lclavicle -3.311e-15 8.44835e-16 0
lhumerus -79.0319 -11.2411 99.8541
lradius 97.2561 0 0
lwrist 52.176 0 0
lhand -17.3805 43.2134 0
lfingers 7.12502 0 0
lthumb 12.4819 -299.115 0
rclavicle 4.68499e-14 3.52218e-14 0
rhumerus 55.163 -6.09654 -37.2762
rradius 83.0815 0 0
rwrist 31.666 0 0
rhand -28.7894 -29.2865 0
rfingers 7.12502 0 0
rthumb -11.9577 -69.9345 0
1330
root -1.84394 14.1483 9.31333 354.805 29.8074 363.95
lfemur 5.14247 -3.35786 -15.2549
ltibia 55.4409 0 0
lfoot -29.3376 30.8712 0
ltoes -17.3894 0 0
rfemur -46.9246 -8.94152 2.36941
rtibia 45.2661 0 0
rfoot 13.2547 6.21784 0
rtoes -5.91799 0 0
lowerback 12.5842 2.1034 -13.1569
upperback -2.04484 0.607542 -1.2329
thorax -9.53186 0.977159 5.94627
lowerneck 1.23702 -12.0384 -11.3764
upperneck 7.05788 -16.8905 11.1599
head 3.82049 -8.41063 4.42291
lclavicle -4.1624e-15 5.4115e-16 0
lhumerus -79.4468 -11.1333 99.9165
lradius 97.4798 0 0
lwrist 53.7302 0 0
lhand -17.1083 42.913 0
lfingers 7.12502 0 0
lthumb 12.4478 -298.401 0
rclavicle 4.1465e-14 3.33305e-14 0
rhumerus 57.3526 -7.73482 -35.4049
rradius 82.8283 0 0
rwrist 31.6223 0 0
rhand -30.2845 -29.6259 0
rfingers 7.12502 0 0
rthumb -12.0992 -69.6766 0
1331
root -1.83959 14.0857 9.45963 355.686 28.9535 364.103
lfemur 5.45078 -3.30226 -15.141
ltibia 55.1877 0 0
lfoot -29.08 31.4712 0
ltoes -16.9495 0 0
rfemur -47.5449 -9.82778 2.85379
rtibia 45.1564 0 0
rfoot 12.9635 6.23997 0
rtoes -6.00412 0 0
lowerback 12.1 2.33911 -12.6599
upperback -2.15329 1.05997 -1.31449
thorax -9.44545 1.16323 5.48597
lowerneck 0.976402 -12.0133 -11.3387
upperneck 7.08107 -16.7891 10.6968
head 3.81556 -8.36324 4.27174
lclavicle -5.00195e-15 2.41693e-16 0
lhumerus -79.419 -11.1561 99.9327
lradius 97.7247 0 0
lwrist 55.2304 0 0
lhand -16.8463 42.6239 0
lfingers 7.12502 0 0
lthumb 12.4111 -297.634 0
rclavicle 3.52816e-14 3.11588e-14 0
rhumerus 59.2357 -9.14379 -33.7956
rradius 82.6695 0 0
rwrist 31.5684 0 0
rhand -31.7664 -29.9623 0
rfingers 7.12502 0 0
rthumb -12.2647 -69.3747 0
1332
root -1.83115 14.0232 9.60085 355.872 27.7 364.145
lfemur 5.82965 -3.23392 -15.0012
ltibia 54.9825 0 0
lfoot -28.8151 32.0883 0
ltoes -16.4631 0 0
rfemur -48.1617 -10.7092 3.33551
rtibia 45.2384 0 0
rfoot 12.571 6.2698 0
rtoes -6.03392 0 0
lowerback 12.0785 2.78001 -12.0914
upperback -2.0569 1.74427 -1.32269
thorax -9.43104 1.45425 5.01603
lowerneck 0.987933 -12.0345 -11.3222
upperneck 6.68299 -16.7593 10.4027
head 3.6639 -8.35956 4.19732
lclavicle -5.81779e-15 -4.93088e-17 0
lhumerus -79.3385 -11.2221 99.9795
lradius 97.9873 0 0
lwrist 56.661 0 0
lhand -16.5971 42.3489 0
lfingers 7.12502 0 0
lthumb 12.3727 -296.828 0
rclavicle 2.84446e-14 2.87575e-14 0
rhumerus 60.7714 -10.2929 -32.4831
rradius 82.6144 0 0
rwrist 31.5051 0 0
rhand -33.2216 -30.2926 0
rfingers 7.12502 0 0
rthumb -12.4517 -69.0339 0
1333
root -1.83785 13.9645 9.74347 356.473 26.8007 364.407
lfemur 6.27122 -3.15428 -14.8382
ltibia 54.83 0 0
lfoot -28.5478 32.7109 0
ltoes -15.9406 0 0
rfemur -48.7683 -11.576 3.80925
rtibia 45.4764 0 0
rfoot 12.086 6.30665 0
rtoes -6.02783 0 0
lowerback 11.7846 3.07012 -12.12
upperback -2.10295 2.1703 -1.27399
thorax -9.39409 1.66136 5.00042
lowerneck 1.45234 -11.9789 -11.5653
upperneck 5.99653 -16.6835 10.5317
head 3.40504 -8.34381 4.32565
lclavicle -6.59807e-15 -3.27628e-16 0
lhumerus -79.2099 -11.3275 100.054
lradius 98.2639 0 0
lwrist 58.0067 0 0
lhand -16.3633 42.0909 0
lfingers 7.12502 0 0
lthumb 12.3331 -296 0
rclavicle 2.10995e-14 2.61778e-14 0
rhumerus 61.919 -11.1515 -31.5024
rradius 82.6078 0 0
rwrist 31.4335 0 0
rhand -34.6368 -30.6139 0
rfingers 7.12502 0 0
rthumb -12.6575 -68.6588 0
